<svg width="50" height="36" viewBox="0 0 50 36" fill="none" xmlns="http://www.w3.org/2000/svg">
<path d="M38.7711 19.1954L29.2086 28.7579C28.5477 29.4188 27.4789 29.4188 26.825 28.7579L25.2359 27.1688C24.575 26.5079 24.575 25.4392 25.2359 24.7853L32.0141 18.0071L25.2359 11.229C24.575 10.5681 24.575 9.49932 25.2359 8.84541L26.818 7.24229C27.4789 6.58135 28.5477 6.58135 29.2016 7.24229L38.7641 16.8048C39.432 17.4657 39.432 18.5345 38.7711 19.1954Z" fill="#2076B2"/>
<path d="M24.7711 19.1954L15.2086 28.7579C14.5477 29.4188 13.4789 29.4188 12.825 28.7579L11.2359 27.1688C10.575 26.5079 10.575 25.4392 11.2359 24.7853L18.0141 18.0071L11.2359 11.229C10.575 10.5681 10.575 9.49932 11.2359 8.84541L12.818 7.24229C13.4789 6.58135 14.5477 6.58135 15.2016 7.24229L24.7641 16.8048C25.432 17.4657 25.432 18.5345 24.7711 19.1954Z" fill="#2076B2"/>
</svg>
